<?xml version="1.0" encoding="utf-8"?>
<svg viewBox="0 0 170.688 61" fill="none" xmlns="http://www.w3.org/2000/svg">
  <defs>
    <linearGradient id="paint0_linear_9_1086" x1="84.0798" y1="1.96582" x2="84.0798" y2="59.3843" gradientUnits="userSpaceOnUse">
      <stop stop-color="#E9599D"/>
      <stop offset="1" stop-color="#FB967E"/>
    </linearGradient>
  </defs>
  <path opacity="0.5" d="M1.5 1.99997C6.89156 1.99997 10.5896 1.53765 15.4896 4.01513C21.6982 7.15435 24.3736 10.8458 28.0026 16.6295C32.7859 24.2529 35.8276 31.4223 44 36.4998C51 40.849 61.5099 41.0957 69.5 41C79.1227 40.8847 87.6087 40.3131 94.4435 32.7395C99.1541 27.5196 102.259 17.9503 98.3696 11.4622C91.1213 -0.629678 71.0801 0.795913 66.0231 13.7419C63.3087 20.6907 62.0004 28.2272 62.3502 35.6777C62.6727 42.5461 65.6086 51.3359 72 55.5C74.2342 56.9556 76.0382 58.7139 78.5362 58.7788C85.4126 58.9574 93.311 60.2006 100 58.5C107.877 56.4974 114.395 51.7009 121.977 48.7987C127.679 46.6162 134.094 41.6261 139 38C144.869 34.136 150 32.7395 155 30.4998C159.545 28.6592 162.284 26.3654 166.66 24.1779" stroke="url(#paint0_linear_9_1086)" stroke-width="2" stroke-linecap="round" stroke-dasharray="6 6"/>
  <path d="M 170.352 22.545 C 170.461 22.003 170.109 21.476 169.568 21.368 L 160.742 19.603 C 160.201 19.495 159.674 19.846 159.566 20.388 C 159.457 20.929 159.809 21.456 160.35 21.564 L 168.195 23.133 L 166.626 30.978 C 166.518 31.519 166.869 32.046 167.41 32.154 C 167.952 32.263 168.479 31.912 168.587 31.37 L 170.352 22.545 Z M 166.926 25.181 L 169.926 23.181 L 168.817 21.517 L 165.817 23.517 C 165.002 24.188 166.111 25.852 166.926 25.181 Z" fill="#ffaf7f"/>
</svg>